<svg xmlns="http://www.w3.org/2000/svg" viewBox="0 0 24 24" fill="currentColor">
  <path d="M16.5 6v.75c0 .966.784 1.75 1.75 1.75h1.25a.75.75 0 0 1 0 1.5H18.25a.75.75 0 0 1-.75-.75V6.75a2.25 2.25 0 0 0-2.25-2.25H9.75A2.25 2.25 0 0 0 7.5 6.75v10.5a2.25 2.25 0 0 0 2.25 2.25h5.25a2.25 2.25 0 0 0 2.25-2.25V14.25a.75.75 0 0 1 .75-.75h1.25a.75.75 0 0 1 0 1.5H18.25c-.966 0-1.75.784-1.75 1.75v.75"/>
  <path d="M3.75 8.25a.75.75 0 0 1 .75-.75h7.5a.75.75 0 0 1 0 1.5H5.25v6.75a.75.75 0 0 1-1.5 0V8.25Z"/>
</svg>
